Coordinates
version=1
nRows=10
nColumns=40
inDegrees=yes

Units are S.I. units (second, meters, Newtons, ...)
Angles are in degrees.

endheader
time	pelvis_tilt	pelvis_list	pelvis_rotation	pelvis_tx	pelvis_ty	pelvis_tz	hip_flexion_r	hip_adduction_r	hip_rotation_r	knee_angle_r	knee_angle_r_beta	ankle_angle_r	subtalar_angle_r	mtp_angle_r	hip_flexion_l	hip_adduction_l	hip_rotation_l	knee_angle_l	knee_angle_l_beta	ankle_angle_l	subtalar_angle_l	mtp_angle_l	lumbar_extension	lumbar_bending	lumbar_rotation	arm_flex_r	arm_add_r	arm_rot_r	elbow_flex_r	pro_sup_r	wrist_flex_r	wrist_dev_r	arm_flex_l	arm_add_l	arm_rot_l	elbow_flex_l	pro_sup_l	wrist_flex_l	wrist_dev_l
     38.74928571	     -3.44300618	     -3.63907471	     -5.26405576	      0.99292285	      0.91130334	      0.40287483	     27.62056650	     -6.29684863	      2.91690560	     67.55129713	     67.55129713	     -0.78355794	    -16.92230749	     -2.04881989	     20.34517899	     -3.36202293	     -6.77686522	     35.24809381	     35.24809381	     21.46087780	    -18.60141008	     11.27412617	    -11.76158845	      8.59946250	      2.69588920	     -2.81247671	    -10.68128517	    -13.96862211	     17.91345191	     47.31522769	      0.00000000	      0.00000000	     29.87755322	    -18.75346960	      8.93829234	     51.11175499	     46.53076243	      0.00000000	      0.00000000
     38.77107143	     -3.48949329	     -3.75724449	     -6.17816700	      0.99327892	      0.91357850	      0.40332885	     28.88074618	     -5.72058773	      2.82668181	     67.14301513	     67.14301513	      0.71291869	    -17.13842668	      1.46340206	     19.31462210	     -3.61505004	     -7.58898928	     34.12430067	     34.12430067	     21.25798999	    -18.56297378	     10.95887216	    -11.83773761	      8.72868403	      1.97605403	     -6.89964784	    -10.45607487	    -14.61515893	     20.31893054	     47.23652195	      0.00000000	      0.00000000	     29.77577231	    -19.53945686	      3.47844186	     55.48567290	     47.04663178	      0.00000000	      0.00000000
     38.79285714	     -3.63897547	     -3.78602253	     -7.16908817	      0.99343392	      0.91657009	      0.40427411	     29.87724057	     -5.24677205	      2.59418335	     65.60539018	     65.60539018	      1.63389468	    -17.57988654	      1.95168173	     18.12753379	     -3.77427725	     -8.54441495	     32.47166338	     32.47166338	     20.79581325	    -18.48989424	     10.58937899	    -11.72590735	      8.71255802	      1.79231733	    -10.26585250	    -10.38781318	    -14.67905343	     20.88396886	     47.18316623	      0.00000000	      0.00000000	     30.51932336	    -20.28738702	      0.42326117	     58.54481861	     47.33092029	      0.00000000	      0.00000000
     38.81464286	     -3.87777804	     -3.85149658	     -8.16840952	      0.99346381	      0.92005943	      0.40569910	     30.56167992	     -4.74658816	      2.19110329	     63.02191226	     63.02191226	      2.53065460	    -17.74775547	      1.38935596	     16.85687256	     -3.95985973	     -9.53549576	     30.47369985	     30.47369985	     20.13603324	    -18.34481121	     10.16343391	    -11.57781821	      8.71681214	      1.72658079	    -13.45335232	    -10.36292134	    -14.83000437	     21.85557049	     47.11199551	      0.00000000	      0.00000000	     31.16170926	    -21.05338715	     -2.22301512	     61.91182238	     47.57870766	      0.00000000	      0.00000000
     38.83642857	     -4.19578083	     -3.95525997	     -9.15628427	      0.99324424	      0.92363398	      0.40751097	     30.95508172	     -4.19990946	      1.68765582	     59.50725761	     59.50725761	      3.30852411	    -17.55377392	     -0.05342347	     15.58622907	     -4.16982817	    -10.53289717	     28.27722570	     28.27722570	     19.30787661	    -18.18278445	      9.66809476	    -11.38532329	      8.74821694	      1.73167450	    -16.37134101	    -10.36518781	    -14.99136129	     23.05022657	     47.02830308	      0.00000000	      0.00000000	     31.80412769	    -21.71966099	     -4.70204863	     65.44683708	     47.81163687	      0.00000000	      0.00000000
     38.85821429	     -4.53325936	     -4.05851407	    -10.11651815	      0.99289405	      0.92706012	      0.40967109	     30.96649547	     -3.64715834	      1.17329434	     55.08825263	     55.08825263	      3.62228116	    -17.07299228	     -2.70429525	     14.28960350	     -4.36141285	    -11.55357571	     25.96768770	     25.96768770	     18.32510371	    -17.95475918	      8.91768671	    -11.20620874	      8.77382402	      1.62423108	    -18.96237633	    -10.45406625	    -14.92897443	     24.69489561	     46.89649695	      0.00000000	      0.00000000	     32.28346061	    -22.44228721	     -7.25528387	     69.15059734	     48.04064772	      0.00000000	      0.00000000
     38.88000000	     -4.91644667	     -4.21251678	    -11.00272234	      0.99241045	      0.92993901	      0.41209599	     30.69507598	     -3.04411357	      0.62881843	     50.06050555	     50.06050555	      4.07137179	    -15.83487365	     -4.56980382	     13.19700760	     -4.61883929	    -12.48120217	     23.95568843	     23.95568843	     17.60212366	    -17.65342667	      8.55400428	    -11.00856855	      8.84611044	      1.70342003	    -21.14678749	    -10.50858508	    -14.97774168	     26.05685093	     46.79590151	      0.00000000	      0.00000000	     32.99279858	    -23.05254778	     -9.16459307	     72.70382620	     48.22520790	      0.00000000	      0.00000000
     38.90178571	     -5.26760745	     -4.30901038	    -11.81786798	      0.99189602	      0.93212589	      0.41468433	     30.12587238	     -2.54850656	      0.06410576	     44.61969327	     44.61969327	      4.52517414	    -13.70787821	     -5.69545248	     12.21224483	     -4.81595230	    -13.37111626	     22.18594910	     22.18594910	     16.98107257	    -17.32415597	      8.17190661	    -10.83826020	      8.86702861	      1.78039007	    -22.92800828	    -10.56973919	    -14.95242847	     27.37467031	     46.69533249	      0.00000000	      0.00000000	     33.75071430	    -23.62603912	    -10.86724204	     75.98946573	     48.38939721	      0.00000000	      0.00000000
     38.92357143	     -5.57433934	     -4.31896179	    -12.51288887	      0.99140640	      0.93347318	      0.41735830	     29.33700916	     -2.21433859	     -0.58444070	     39.06873227	     39.06873227	      5.12858479	    -10.62810822	     -5.51724747	     11.42453530	     -4.93669476	    -14.17223814	     20.84439022	     20.84439022	     16.68169760	    -16.92836219	      8.12206284	    -10.64902727	      8.79228704	      2.09892115	    -24.15576902	    -10.50394606	    -14.96384199	     27.81865104	     46.65594125	      0.00000000	      0.00000000	     35.02386172	    -23.97961137	    -11.72932640	     78.41715777	     48.49426304	      0.00000000	      0.00000000
     38.94535714	     -5.77876022	     -4.28704534	    -13.09613946	      0.99109626	      0.93397281	      0.42012782	     28.30009849	     -2.00268524	     -1.35683561	     33.59300965	     33.59300965	      5.60976739	     -6.83594121	     -4.57217312	     10.76378382	     -5.03486029	    -14.89039055	     19.94429922	     19.94429922	     16.48996993	    -16.62163288	      7.62838780	    -10.59485415	      8.67423370	      2.18239766	    -25.14882641	    -10.46849182	    -15.04503532	     28.87818037	     46.59475696	      0.00000000	      0.00000000	     35.90587554	    -24.34810327	    -12.91542673	     81.33299487	     48.62520405	      0.00000000	      0.00000000
